<svg width="174" height="39" viewBox="0 0 174 39" fill="none" xmlns="http://www.w3.org/2000/svg">
<path d="M10.8811 32.4278C10.9 32.8709 10.8635 33.4396 10.8022 34.0074C10.5589 36.2606 8.98589 38.2089 6.92932 38.7815C6.50588 38.8994 6.07494 38.9765 5.6308 38.9959C3.81105 39.0757 1.72133 37.9075 0.77336 35.8464C-0.382119 33.3341 0.212012 30.3232 2.54916 28.6204C3.22571 28.1275 3.97478 27.8476 4.79602 27.7604C5.54949 27.6802 6.30314 27.6287 7.05936 27.5915C9.59778 27.467 11.7703 25.7379 12.5829 23.2193C12.7421 22.7258 12.8536 22.2243 12.8558 21.6991C12.8578 21.2063 12.8719 20.7136 12.8686 20.2209C12.8642 19.5724 12.8459 18.9242 12.8375 18.2758C12.8177 16.7604 12.3358 15.4324 11.3818 14.3096C11.0229 13.8871 10.6346 13.4887 10.2315 13.1135C9.55328 12.4822 8.75933 12.1191 7.85513 12.013C7.34525 11.9531 6.83555 11.9107 6.32402 11.8745C5.44674 11.8122 4.57807 11.6806 3.7268 11.4339C3.37223 11.3311 3.02937 11.1986 2.69861 11.0316C1.45815 10.4054 0.656146 9.37828 0.25725 7.99017C0.114212 7.49237 0.0310618 6.97783 0.00358968 6.46135C-0.0139925 6.12936 0.0360069 5.7888 0.0883872 5.45797C0.291498 4.17086 0.774092 3.02172 1.67848 2.11759C2.86216 0.934201 4.28265 0.379381 5.89985 0.568537C8.20037 0.837675 9.85291 2.4922 10.4555 4.61339C10.5613 4.98586 10.6401 5.36593 10.654 5.75786C10.6743 6.32786 10.7025 6.89785 10.7181 7.46804C10.7337 8.03959 10.7683 8.60804 10.911 9.16266C10.9688 9.38743 11.0108 9.62037 11.0961 9.83307C11.91 11.8587 13.2682 13.2517 15.2948 13.8371C15.9085 14.0143 16.5444 14.0597 17.1817 14.0556C17.6698 14.0525 18.1588 14.0398 18.6458 14.0667C20.7866 14.1846 22.522 15.7658 23.158 17.6062C23.361 18.1935 23.4778 18.8026 23.5106 19.4279C23.5405 19.9977 23.5577 20.5682 23.5915 21.1376C23.6221 21.6547 23.643 22.1745 23.797 22.6737C23.8426 22.8212 23.8771 22.9736 23.9331 23.1164C24.6631 24.9731 25.8763 26.3287 27.634 27.1068C28.1787 27.3479 28.749 27.4767 29.3453 27.4672C29.9067 27.4582 30.4682 27.4633 31.0297 27.4712C31.62 27.4796 32.2002 27.5853 32.753 27.7953C34.6158 28.5026 35.8099 29.8732 36.2756 31.9254C36.9954 35.0972 34.8982 38.0807 32.1083 38.7003C30.1601 39.1331 27.6036 38.2494 26.406 35.8772C26.1386 35.3475 25.9576 34.7876 25.8582 34.1948C25.7723 33.6826 25.7318 33.1679 25.712 32.6485C25.6895 32.0528 25.6419 31.4581 25.6067 30.8628C25.5615 30.0961 25.3217 29.3932 24.9707 28.7317C24.4708 27.7904 23.7941 27.0172 22.9608 26.3978C22.035 25.7093 21.0042 25.3452 19.8784 25.3164C19.1713 25.2983 18.4629 25.3253 17.7554 25.3442C17.3164 25.3559 16.8783 25.4012 16.4393 25.4119C15.894 25.4254 15.3715 25.5507 14.8755 25.7766C13.1834 26.5475 11.9668 27.8363 11.2305 29.6286C11.0146 30.1543 10.8849 30.7083 10.8811 31.2878C10.8789 31.6251 10.8807 31.9621 10.8807 32.428L10.8811 32.4278Z" fill="white"/>
<path d="M53.7831 27.1687C51.5613 27.1687 49.3398 27.1697 47.118 27.1679C46.7751 27.1678 46.4376 27.1841 46.1035 27.2865C45.1059 27.5922 44.4801 28.5876 44.6981 29.7581C44.7217 29.8852 44.7477 30.0135 44.7887 30.1349C45.4896 32.2105 46.7625 33.6845 48.7658 34.3829C49.5601 34.6598 50.3738 34.8025 51.2132 34.7818C51.8778 34.7653 52.5258 34.645 53.1547 34.4308C53.9327 34.1657 54.6221 33.7273 55.2008 33.1102C55.4241 32.8722 55.6323 32.6153 55.8261 32.3493C56.2389 31.7822 56.2356 31.7937 56.8574 31.7894C57.712 31.7836 58.5664 31.7865 59.4209 31.7894C59.5669 31.7898 59.7136 31.8013 59.8583 31.8213C60.0783 31.8517 60.2209 32.1193 60.1458 32.3549C60.1147 32.4522 60.077 32.5488 60.0301 32.6385C58.7493 35.0792 56.8948 36.774 54.3554 37.5923C52.9815 38.035 51.5786 38.1396 50.1553 38.0672C48.6995 37.993 47.3074 37.6361 45.9936 36.9671C43.1975 35.5435 41.4591 33.1966 40.6835 30.0261C40.4558 29.0953 40.3437 28.1427 40.2723 27.1853C40.2549 26.9529 40.2505 26.7184 40.2564 26.4855C40.3144 24.1847 40.8607 22.0335 41.9902 20.0571C43.3204 17.7294 45.2261 16.2191 47.6892 15.4903C49.1377 15.0616 50.6137 14.8816 52.11 15.0274C54.6501 15.2751 56.8759 16.2882 58.696 18.2202C59.6087 19.189 60.2429 20.3519 60.7074 21.6215C61.2445 23.0898 61.4997 24.6118 61.4346 26.1899C61.4304 26.2936 61.4279 26.3973 61.4202 26.5006C61.3786 27.0609 61.2815 27.1569 60.7411 27.1678C60.5458 27.1716 60.3504 27.1693 60.1552 27.1693C58.031 27.1693 55.9071 27.1693 53.7829 27.1693L53.7831 27.1687ZM50.8982 25.0791C52.0677 25.0791 53.2371 25.0791 54.4067 25.0791C54.4311 25.0791 54.4554 25.0785 54.4798 25.0791C54.7734 25.0868 55.0624 25.0557 55.3508 24.9942C56.5105 24.7469 57.2221 23.3926 56.8133 22.2532C56.4201 21.1568 55.7996 20.2542 54.9173 19.5556C53.954 18.7928 52.8604 18.3876 51.6696 18.2887C50.3278 18.1774 49.05 18.458 47.8456 19.0889C46.7433 19.6663 45.9012 20.5417 45.3002 21.6815C45.1435 21.9788 45.0468 22.2931 44.9843 22.6267C44.7911 23.6608 45.4929 24.8029 46.5176 24.9936C46.8552 25.0565 47.1938 25.081 47.5357 25.0802C48.6566 25.0775 49.7773 25.0793 50.8982 25.0793V25.0791Z" fill="white"/>
<path d="M101.739 27.1682C99.5186 27.1682 97.2979 27.1698 95.0773 27.1669C94.7097 27.1665 94.3483 27.1896 93.9899 27.2897C93.0876 27.5419 92.541 28.4086 92.604 29.4C92.622 29.6827 92.689 29.9591 92.7711 30.2336C93.4848 32.6199 95.654 34.3762 97.7208 34.6654C98.5758 34.785 99.4204 34.8067 100.269 34.6453C101.619 34.3886 102.741 33.7178 103.609 32.5817C103.747 32.4006 103.873 32.2095 104.012 32.0289C104.126 31.8815 104.276 31.8033 104.458 31.7977C104.555 31.7948 104.653 31.7879 104.75 31.7879C105.653 31.7872 106.556 31.7848 107.459 31.7903C107.628 31.7913 107.798 31.821 107.966 31.8471C108.05 31.8601 108.174 32.073 108.151 32.1565C108.116 32.2801 108.088 32.4093 108.031 32.5216C107 34.5747 105.541 36.1576 103.52 37.1119C102.351 37.6642 101.126 37.9816 99.847 38.0706C99.1137 38.1215 98.3814 38.1159 97.6538 38.0342C95.8575 37.8324 94.1745 37.263 92.6542 36.2033C91.7887 35.5999 91.0434 34.8571 90.4288 33.9732C89.3827 32.4691 88.6911 30.8029 88.4052 28.9487C88.3297 28.4596 88.2873 27.9729 88.2882 27.4794C88.2893 26.9608 88.2741 26.4416 88.292 25.9237C88.3699 23.671 88.9592 21.5891 90.1517 19.7114C91.0546 18.2898 92.1834 17.1313 93.6211 16.3297C94.4469 15.8693 95.3221 15.5579 96.2276 15.3301C97.4974 15.0105 98.7847 14.9212 100.081 15.0251C101.457 15.1354 102.766 15.5282 103.999 16.1939C104.873 16.6662 105.681 17.2397 106.399 17.9551C107.491 19.0431 108.236 20.3676 108.746 21.8476C109.273 23.3779 109.466 24.9618 109.364 26.5868C109.358 26.6889 109.334 26.7905 109.313 26.8909C109.288 27.0075 109.165 27.133 109.059 27.1392C108.816 27.1534 108.572 27.1665 108.328 27.1667C106.132 27.1686 103.936 27.1678 101.739 27.1678L101.739 27.1682ZM98.8827 25.084C98.8827 25.078 98.8827 25.0718 98.8827 25.0657C99.273 25.0657 99.6631 25.0657 100.053 25.0657C100.883 25.0657 101.712 25.0727 102.541 25.0616C102.833 25.0577 103.13 25.0428 103.413 24.9754C104.138 24.8028 104.641 24.3412 104.811 23.5581C104.911 23.1014 104.885 22.6343 104.725 22.1809C104.418 21.3155 103.956 20.5653 103.307 19.9488C102.269 18.9647 101.046 18.4289 99.6706 18.3028C98.3298 18.1798 97.0439 18.4468 95.8344 19.0688C94.6326 19.6869 93.7183 20.6305 93.1383 21.9188C93.0445 22.1272 92.9705 22.3506 92.9198 22.5752C92.6722 23.6694 93.3147 24.7542 94.3527 24.9842C94.6372 25.0472 94.9328 25.0772 95.2234 25.0797C96.443 25.09 97.663 25.084 98.8827 25.084Z" fill="white"/>
<path d="M64.7194 26.6079C64.7194 23.3909 64.7194 20.1741 64.7194 16.9571C64.7194 16.7494 64.7177 16.542 64.7219 16.3345C64.7239 16.2312 64.7324 16.1275 64.7461 16.0251C64.7765 15.7988 64.9241 15.6242 65.1272 15.6225C66.0787 15.6147 67.0303 15.6157 67.9819 15.6223C68.1726 15.6236 68.2906 15.7546 68.349 15.9453C68.4019 16.1179 68.4455 16.295 68.5129 16.461C68.8109 17.1931 69.3415 17.588 70.0849 17.6767C70.5982 17.7378 71.0513 17.5942 71.4521 17.2537C71.6237 17.1079 71.7918 16.9577 71.9614 16.8094C73.0046 15.8975 74.1938 15.3479 75.5329 15.143C76.0421 15.0651 76.5491 15.0085 77.0628 15.0017C78.0485 14.9885 79.008 15.1611 79.9443 15.474C81.5241 16.0021 82.7418 17.0244 83.5903 18.539C84.0561 19.3704 84.3819 20.263 84.5923 21.2004C84.7737 22.008 84.8984 22.8275 84.9141 23.6612C84.9376 24.9061 84.9768 26.1508 84.9808 27.3957C84.9905 30.3791 84.9845 33.3626 84.9825 36.3459C84.9825 36.63 85.0055 36.9169 84.9248 37.1961C84.8859 37.33 84.8132 37.43 84.6832 37.4581C84.5405 37.4888 84.3944 37.5184 84.2495 37.5194C83.3706 37.5252 82.4915 37.5277 81.6127 37.519C81.4199 37.517 81.2254 37.4754 81.0354 37.4326C80.9387 37.4108 80.8679 37.3232 80.8466 37.2158C80.8267 37.1152 80.8175 37.0107 80.8155 36.9075C80.8105 36.6742 80.8126 36.4407 80.8124 36.2071C80.8096 32.6011 80.8047 28.9951 80.8061 25.3889C80.8065 24.3433 80.6726 23.3214 80.3763 22.3248C80.199 21.7286 79.9543 21.1654 79.6212 20.6474C79.0952 19.8298 78.4014 19.2277 77.5243 18.9002C75.8165 18.2623 74.1187 18.2874 72.4707 19.1263C71.066 19.8415 70.0984 21.0048 69.5127 22.5329C69.1686 23.4306 68.9993 24.3699 68.9405 25.3321C68.9122 25.7976 68.91 26.2654 68.9101 26.7323C68.9118 29.9232 68.9178 33.1141 68.9204 36.305C68.9206 36.5643 68.9133 36.8239 68.8957 37.0823C68.8814 37.2917 68.7129 37.4727 68.5195 37.5015C68.3992 37.5194 68.277 37.5314 68.1558 37.5312C67.2768 37.5305 66.3977 37.5342 65.519 37.5203C64.8212 37.5094 64.7227 37.3995 64.7212 36.6479C64.717 34.5725 64.7195 32.497 64.7194 30.4216C64.7194 29.1504 64.7194 27.8791 64.7194 26.6079Z" fill="white"/>
<path d="M124.718 20.5863C124.615 20.41 124.511 20.2374 124.411 20.0625C123.934 19.2292 123.256 18.6747 122.383 18.3754C121.82 18.1824 121.243 18.0962 120.656 18.0718C119.97 18.0434 119.289 18.0786 118.625 18.2853C118.201 18.4171 117.794 18.5901 117.43 18.8604C116.684 19.4146 116.262 20.165 116.218 21.1419C116.189 21.7719 116.389 22.3113 116.782 22.7762C117.046 23.0891 117.364 23.3302 117.709 23.5276C118.118 23.7613 118.547 23.9479 118.997 24.0762C119.868 24.3243 120.739 24.5732 121.609 24.8268C122.809 25.1763 124.02 25.4802 125.202 25.8938C125.619 26.0395 126.032 26.1966 126.441 26.3665C127.013 26.6045 127.529 26.9478 128.012 27.35C128.82 28.0235 129.275 28.914 129.437 29.981C129.483 30.2881 129.526 30.5981 129.539 30.9081C129.612 32.6152 129.164 34.1339 128.065 35.4097C127.6 35.9503 127.061 36.3933 126.462 36.7543C125.519 37.3231 124.507 37.6831 123.443 37.8911C122.306 38.1132 121.161 38.1093 120.013 38.0632C118.732 38.0116 117.497 37.7218 116.309 37.2227C114.872 36.6188 113.658 35.6874 112.721 34.369C112.32 33.8058 112.008 33.1922 111.801 32.5212C111.756 32.3761 111.745 32.2182 111.727 32.0651C111.717 31.9775 111.81 31.8549 111.886 31.8249C112.12 31.7333 112.364 31.7272 112.608 31.7263C113.292 31.7237 113.975 31.7249 114.659 31.7247C114.805 31.7247 114.952 31.7226 115.098 31.7268C115.22 31.7303 115.342 31.7411 115.463 31.7502C115.672 31.7658 115.836 31.8617 115.943 32.0573C116.042 32.2363 116.139 32.4161 116.243 32.5919C116.504 33.0346 116.819 33.4277 117.196 33.7651C117.864 34.3647 118.64 34.7341 119.49 34.9112C120.088 35.0357 120.696 35.1085 121.311 35.0756C121.998 35.0386 122.667 34.9071 123.306 34.6303C124.007 34.3272 124.564 33.8352 124.945 33.1399C125.473 32.175 125.494 31.1714 125.088 30.1533C124.859 29.5798 124.456 29.1709 123.943 28.8897C123.684 28.7478 123.408 28.6391 123.134 28.532C122.125 28.1379 121.083 27.8671 120.037 27.6096C118.944 27.3407 117.851 27.0742 116.787 26.6872C116.163 26.4601 115.551 26.204 114.964 25.8844C114.462 25.6114 113.995 25.2849 113.571 24.8877C112.588 23.9664 112.169 22.7883 112.208 21.4216C112.221 20.9845 112.295 20.5433 112.39 20.1163C112.645 18.9732 113.215 18.021 114.019 17.222C115.008 16.2394 116.181 15.6403 117.494 15.3328C118.791 15.0292 120.104 14.9379 121.425 15.0366C122.525 15.1187 123.602 15.3394 124.621 15.809C125.274 16.1096 125.885 16.4833 126.431 16.9725C127.33 17.7786 127.955 18.7831 128.349 19.9552C128.381 20.0515 128.396 20.1555 128.41 20.2572C128.429 20.3925 128.294 20.5797 128.167 20.6011C128.095 20.6134 128.022 20.6311 127.95 20.6313C126.973 20.633 125.997 20.6334 125.02 20.6303C124.925 20.6299 124.829 20.6036 124.717 20.5871L124.718 20.5863Z" fill="white"/>
<path d="M150.065 37.7996C148.437 37.8331 146.854 37.5834 145.336 36.9368C144.515 36.5873 143.748 36.1406 143.06 35.5461C142.255 34.8494 141.598 34.0202 141.133 33.0312C140.992 32.7312 140.88 32.4136 140.777 32.0962C140.739 31.9804 140.748 31.8395 140.764 31.7146C140.773 31.6507 140.836 31.5682 140.894 31.5445C141.005 31.4982 141.128 31.4699 141.248 31.4653C141.589 31.4518 141.931 31.4485 142.273 31.4511C142.907 31.4557 143.542 31.4668 144.176 31.4765C144.323 31.4789 144.469 31.4841 144.615 31.4933C144.747 31.5015 144.847 31.5785 144.915 31.6902C145.021 31.864 145.113 32.0467 145.215 32.2234C145.631 32.945 146.177 33.5277 146.862 33.9597C147.371 34.2802 147.923 34.4925 148.499 34.6157C149.44 34.8171 150.388 34.8251 151.338 34.6597C151.876 34.5661 152.375 34.3612 152.837 34.065C153.836 33.4257 154.354 32.4821 154.372 31.2391C154.376 30.9544 154.367 30.6701 154.298 30.3897C154.125 29.6784 153.75 29.1259 153.171 28.7274C152.861 28.5145 152.522 28.3707 152.176 28.2407C151.324 27.9204 150.452 27.6788 149.574 27.4527C148.603 27.2023 147.633 26.9454 146.665 26.6811C145.716 26.4223 144.807 26.049 143.937 25.5719C143.326 25.2366 142.769 24.8205 142.293 24.2873C141.847 23.7879 141.517 23.215 141.375 22.543C141.274 22.0633 141.215 21.5702 141.234 21.0757C141.285 19.7349 141.713 18.5476 142.528 17.5166C143.251 16.6035 144.135 15.9325 145.174 15.491C145.971 15.1522 146.8 14.9474 147.654 14.8453C148.334 14.7639 149.014 14.7104 149.699 14.7258C150.531 14.7445 151.357 14.8274 152.168 15.0243C152.98 15.2212 153.759 15.5217 154.483 15.9652C155.874 16.816 156.825 18.0557 157.36 19.6584C157.4 19.7775 157.407 19.9098 157.421 20.0371C157.43 20.1239 157.339 20.2605 157.268 20.2815C157.198 20.3024 157.128 20.3296 157.056 20.336C156.886 20.3512 156.715 20.36 156.544 20.3637C155.934 20.3769 155.324 20.3888 154.714 20.3975C154.518 20.4004 154.323 20.4006 154.128 20.3874C153.868 20.3699 153.66 20.2522 153.538 19.9943C153.505 19.9248 153.469 19.8571 153.433 19.7898C152.915 18.8354 152.129 18.2532 151.137 18.0014C150.007 17.7143 148.865 17.6898 147.727 17.9772C147.273 18.092 146.847 18.2814 146.461 18.5682C146.096 18.8403 145.8 19.1777 145.571 19.5854C144.983 20.6301 145.136 22.0283 146.177 22.8476C146.691 23.2528 147.254 23.5598 147.869 23.7502C148.524 23.9531 149.182 24.1466 149.841 24.3361C151.135 24.7088 152.431 25.0752 153.726 25.4458C154.316 25.6143 154.896 25.812 155.456 26.0704C156.042 26.3404 156.581 26.6866 157.081 27.1114C157.819 27.7398 158.268 28.5456 158.431 29.5299C158.491 29.887 158.551 30.2486 158.561 30.6098C158.615 32.4583 158.112 34.0864 156.833 35.3943C156.174 36.068 155.415 36.58 154.573 36.9512C153.505 37.4219 152.394 37.7027 151.236 37.7508C150.846 37.7669 150.455 37.7831 150.065 37.7991V37.7996Z" fill="white"/>
<path d="M132.985 26.985C132.985 23.7462 132.984 20.5071 132.985 17.2683C132.985 17.0095 132.988 16.7501 133.003 16.4919C133.016 16.2585 133.162 16.1001 133.367 16.0782C133.488 16.0653 133.61 16.0569 133.732 16.0567C134.634 16.055 135.537 16.0503 136.439 16.0579C137.078 16.0632 137.144 16.1375 137.169 16.819C137.176 17.0261 137.173 17.2335 137.173 17.4408C137.173 23.8409 137.174 30.2409 137.171 36.6408C137.171 36.9763 137.149 37.3126 137.12 37.6469C137.108 37.7808 137.017 37.8855 136.889 37.9188C136.748 37.9554 136.603 37.9937 136.459 37.9947C135.533 38.0009 134.606 37.9978 133.679 37.9961C133.606 37.9961 133.533 37.9863 133.461 37.976C133.143 37.9307 133 37.7596 132.989 37.401C132.982 37.168 132.985 36.9347 132.985 36.7014C132.985 33.4626 132.985 30.2236 132.985 26.9848L132.985 26.985Z" fill="white"/>
<path d="M23.3532 11.8249C23.2887 9.52101 25.1442 7.68394 27.1694 7.6676C29.1388 7.65183 31.1478 9.22463 31.1447 11.8199C31.1417 14.3167 29.1093 15.9521 27.2861 15.957C25.2541 15.9624 23.3177 14.1804 23.353 11.8251L23.3532 11.8249Z" fill="white"/>
<path d="M135.079 12.7072C133.624 12.7958 132.029 11.4929 132.029 9.45735C132.029 7.42179 133.704 6.23626 135.041 6.24074C136.595 6.2458 138.128 7.49087 138.138 9.45754C138.147 11.3551 136.607 12.7938 135.079 12.7072Z" fill="white"/>
<path d="M162.345 15.9941H160.688V9.02107H158.564V7.52686H164.469V9.02107H162.345V15.9941Z" fill="white"/>
<path d="M168.813 15.9936L166.935 9.3507H166.887C166.894 9.50884 166.906 9.74747 166.922 10.0661C166.938 10.3848 166.953 10.7233 166.968 11.0827C166.982 11.4416 166.989 11.7659 166.989 12.0557V15.9941H165.512V7.52686H167.762L169.607 14.0022H169.639L171.596 7.52686H173.847V15.9941H172.306V11.9861C172.306 11.7195 172.31 11.4127 172.319 11.0652C172.328 10.7176 172.34 10.3867 172.354 10.0718C172.369 9.75694 172.379 9.52068 172.386 9.36253H172.338L170.327 15.9941H168.813V15.9936Z" fill="white"/>
</svg>
